<svg data-name="Layer 1" xmlns="http://www.w3.org/2000/svg" viewBox="0 0 24 24"><path d="M12 .3a12 12 0 0 0-3.79 23.38c.6.11.82-.26.82-.58v-2c-3.34.73-4-1.61-4-1.61a3.18 3.18 0 0 0-1.39-1.79c-1.09-.7.08-.7.08-.7a2.52 2.52 0 0 1 1.84 1.24A2.55 2.55 0 0 0 9 19.2a2.56 2.56 0 0 1 .76-1.6c-2.66-.3-5.47-1.33-5.47-5.93a4.64 4.64 0 0 1 1.29-3.22 4.32 4.32 0 0 1 .12-3.18S6.7 5 9 6.5a11.37 11.37 0 0 1 6 0c2.3-1.5 3.3-1.23 3.3-1.23a4.31 4.31 0 0 1 .12 3.18 4.63 4.63 0 0 1 1.23 3.22c0 4.61-2.81 5.62-5.48 5.92a2.86 2.86 0 0 1 .83 2.22v3.29c0 .39.22.69.83.58A12 12 0 0 0 12 .3z" fill="#fff" fill-rule="evenodd"/></svg>